<svg width="1000" height="1000" viewBox="0 0 1000 1000" fill="none" xmlns="http://www.w3.org/2000/svg">
<g filter="url(#filter0_d_2221_3304)">
<rect x="75" y="75" width="850" height="850" rx="200" fill="url(#paint0_linear_2221_3304)"/>
</g>
<path fill-rule="evenodd" clip-rule="evenodd" d="M608.882 428.682C641.915 452.283 682.385 466.17 726.091 466.17V382.105C717.819 382.109 709.569 381.246 701.476 379.531V445.703C657.773 445.703 617.309 431.815 584.267 408.214V579.764C584.267 665.582 514.663 735.146 428.806 735.146C396.772 735.146 366.995 725.466 342.26 708.865C370.491 737.715 409.859 755.614 453.414 755.614C539.278 755.614 608.885 686.05 608.885 600.228V428.682H608.882ZM639.247 343.872C622.365 325.439 611.281 301.614 608.882 275.276V264.464H585.556C591.426 297.938 611.453 326.537 639.247 343.872V343.872ZM396.563 643.014C387.132 630.653 382.034 615.531 382.057 599.984C382.057 560.733 413.895 528.91 453.173 528.91C460.492 528.905 467.768 530.028 474.745 532.239V446.297C466.593 445.181 458.366 444.707 450.139 444.882V511.775C443.159 509.563 435.88 508.44 428.558 508.445C389.28 508.445 357.445 540.268 357.445 579.522C357.445 607.276 373.358 631.308 396.563 643.014V643.014Z" fill="#EE1D52"/>
<path fill-rule="evenodd" clip-rule="evenodd" d="M584.266 408.214C617.308 431.815 657.772 445.703 701.475 445.703V379.531C677.081 374.339 655.485 361.596 639.246 343.872C611.453 326.537 591.426 297.938 585.555 264.464H524.285V600.225C524.146 639.367 492.363 671.06 453.169 671.06C430.072 671.06 409.554 660.058 396.559 643.014C373.354 631.308 357.441 607.276 357.441 579.522C357.441 540.268 389.276 508.445 428.554 508.445C436.079 508.445 443.332 509.617 450.136 511.775V444.882C365.787 446.623 297.949 515.508 297.949 600.228C297.949 642.519 314.843 680.858 342.259 708.868C366.994 725.47 396.771 735.149 428.805 735.149C514.662 735.149 584.266 665.582 584.266 579.767V408.214Z" fill="black"/>
<path fill-rule="evenodd" clip-rule="evenodd" d="M701.475 379.531V361.638C679.475 361.671 657.91 355.514 639.245 343.869C655.767 361.948 677.523 374.416 701.475 379.531V379.531ZM585.554 264.465C584.994 261.266 584.564 258.046 584.266 254.812V244H499.667V579.764C499.531 618.903 467.75 650.596 428.554 650.596C417.045 650.596 406.182 647.867 396.559 643.014C409.553 660.059 430.072 671.061 453.169 671.061C492.359 671.061 524.146 639.368 524.284 600.225V264.465H585.554ZM450.138 444.882V425.833C443.069 424.866 435.942 424.383 428.807 424.387C342.941 424.387 273.337 493.955 273.337 579.764C273.337 633.563 300.692 680.976 342.261 708.866C314.846 680.855 297.952 642.516 297.952 600.225C297.952 515.509 365.787 446.623 450.138 444.882V444.882Z" fill="#69C9D0"/>
<defs>
<filter id="filter0_d_2221_3304" x="55" y="63" width="890" height="890" filterUnits="userSpaceOnUse" color-interpolation-filters="sRGB">
<feFlood flood-opacity="0" result="BackgroundImageFix"/>
<feColorMatrix in="SourceAlpha" type="matrix" values="0 0 0 0 0 0 0 0 0 0 0 0 0 0 0 0 0 0 127 0" result="hardAlpha"/>
<feOffset dy="8"/>
<feGaussianBlur stdDeviation="10"/>
<feColorMatrix type="matrix" values="0 0 0 0 0 0 0 0 0 0 0 0 0 0 0 0 0 0 0.25 0"/>
<feBlend mode="normal" in2="BackgroundImageFix" result="effect1_dropShadow_2221_3304"/>
<feBlend mode="normal" in="SourceGraphic" in2="effect1_dropShadow_2221_3304" result="shape"/>
</filter>
<linearGradient id="paint0_linear_2221_3304" x1="303.65" y1="75" x2="797.075" y2="925" gradientUnits="userSpaceOnUse">
<stop offset="0.364583" stop-color="white"/>
<stop offset="1" stop-color="#D8DFEC"/>
</linearGradient>
</defs>
</svg>
