<svg width="1000" height="1000" viewBox="0 0 1000 1000" fill="none" xmlns="http://www.w3.org/2000/svg">
<g filter="url(#filter0_d_2219_3256)">
<rect x="75" y="75" width="850" height="850" rx="200" fill="url(#paint0_linear_2219_3256)"/>
</g>
<path d="M764.184 367.279C757.827 343.539 739.159 324.884 715.406 318.529C672.398 307 499.859 307 499.859 307C499.859 307 327.323 307 284.313 318.529C260.56 324.884 241.894 343.539 235.536 367.279C224 410.263 224 500 224 500C224 500 224 589.737 235.536 632.722C241.894 656.461 260.56 675.117 284.313 681.47C327.323 693 499.859 693 499.859 693C499.859 693 672.398 693 715.406 681.47C739.159 675.117 757.827 656.461 764.184 632.722C775.72 589.737 775.72 500 775.72 500C775.72 500 775.674 410.263 764.184 367.279Z" fill="#FF0000"/>
<path d="M444.635 582.708L587.97 500.008L444.635 417.306V582.708Z" fill="white"/>
<defs>
<filter id="filter0_d_2219_3256" x="55" y="63" width="890" height="890" filterUnits="userSpaceOnUse" color-interpolation-filters="sRGB">
<feFlood flood-opacity="0" result="BackgroundImageFix"/>
<feColorMatrix in="SourceAlpha" type="matrix" values="0 0 0 0 0 0 0 0 0 0 0 0 0 0 0 0 0 0 127 0" result="hardAlpha"/>
<feOffset dy="8"/>
<feGaussianBlur stdDeviation="10"/>
<feColorMatrix type="matrix" values="0 0 0 0 0 0 0 0 0 0 0 0 0 0 0 0 0 0 0.25 0"/>
<feBlend mode="normal" in2="BackgroundImageFix" result="effect1_dropShadow_2219_3256"/>
<feBlend mode="normal" in="SourceGraphic" in2="effect1_dropShadow_2219_3256" result="shape"/>
</filter>
<linearGradient id="paint0_linear_2219_3256" x1="303.65" y1="75" x2="797.075" y2="925" gradientUnits="userSpaceOnUse">
<stop offset="0.364583" stop-color="white"/>
<stop offset="1" stop-color="#D8DFEC"/>
</linearGradient>
</defs>
</svg>
