<svg width="1000" height="1000" viewBox="0 0 1000 1000" fill="none" xmlns="http://www.w3.org/2000/svg">
<g filter="url(#filter0_d_2220_3291)">
<rect x="75" y="75" width="850" height="850" rx="200" fill="url(#paint0_linear_2220_3291)"/>
</g>
<path d="M499.826 233C388.465 233 355.896 233.115 349.566 233.64C326.712 235.54 312.492 239.138 296.999 246.851C285.06 252.78 275.643 259.653 266.35 269.286C249.426 286.855 239.168 308.469 235.455 334.161C233.65 346.634 233.125 349.178 233.018 412.888C232.977 434.125 233.018 462.074 233.018 499.562C233.018 610.833 233.141 643.369 233.675 649.688C235.521 671.925 239.008 685.916 246.394 701.22C260.508 730.515 287.464 752.507 319.22 760.712C330.216 763.543 342.361 765.102 357.952 765.841C364.558 766.128 431.886 766.333 499.256 766.333C566.626 766.333 633.996 766.251 640.437 765.923C658.49 765.074 668.973 763.666 680.564 760.671C696.31 756.633 710.985 749.207 723.564 738.91C736.142 728.613 746.322 715.694 753.39 701.056C760.632 686.121 764.304 671.597 765.966 650.52C766.327 645.925 766.479 572.66 766.479 499.492C766.479 426.313 766.315 353.182 765.954 348.587C764.271 327.17 760.599 312.769 753.124 297.547C746.99 285.086 740.179 275.781 730.291 266.266C712.649 249.412 691.067 239.154 665.346 235.445C652.886 233.644 650.403 233.111 586.644 233H499.826Z" fill="url(#paint1_radial_2220_3291)"/>
<path d="M499.826 233C388.465 233 355.896 233.115 349.566 233.64C326.712 235.54 312.492 239.138 296.999 246.851C285.06 252.78 275.643 259.653 266.35 269.286C249.426 286.855 239.168 308.469 235.455 334.161C233.65 346.634 233.125 349.178 233.018 412.888C232.977 434.125 233.018 462.074 233.018 499.562C233.018 610.833 233.141 643.369 233.675 649.688C235.521 671.925 239.008 685.916 246.394 701.22C260.508 730.515 287.464 752.507 319.22 760.712C330.216 763.543 342.361 765.102 357.952 765.841C364.558 766.128 431.886 766.333 499.256 766.333C566.626 766.333 633.996 766.251 640.437 765.923C658.49 765.074 668.973 763.666 680.564 760.671C696.31 756.633 710.985 749.207 723.564 738.91C736.142 728.613 746.322 715.694 753.39 701.056C760.632 686.121 764.304 671.597 765.966 650.52C766.327 645.925 766.479 572.66 766.479 499.492C766.479 426.313 766.315 353.182 765.954 348.587C764.271 327.17 760.599 312.769 753.124 297.547C746.99 285.086 740.179 275.781 730.291 266.266C712.649 249.412 691.067 239.154 665.346 235.445C652.886 233.644 650.403 233.111 586.644 233H499.826Z" fill="url(#paint2_radial_2220_3291)"/>
<path d="M499.703 302.75C446.217 302.75 439.505 302.983 418.498 303.939C397.532 304.899 383.221 308.219 370.699 313.089C357.746 318.119 346.759 324.848 335.812 335.798C324.857 346.745 318.129 357.733 313.082 370.681C308.2 383.208 304.876 397.523 303.933 418.48C302.997 439.487 302.751 446.204 302.751 499.689C302.751 553.175 302.989 559.867 303.941 580.874C304.905 601.839 308.224 616.15 313.09 628.672C318.125 641.625 324.853 652.613 335.804 663.56C346.746 674.514 357.734 681.26 370.679 686.29C383.209 691.16 397.524 694.479 418.486 695.439C439.493 696.395 446.201 696.629 499.683 696.629C553.172 696.629 559.864 696.395 580.871 695.439C601.837 694.479 616.164 691.16 628.694 686.29C641.643 681.26 652.614 674.514 663.557 663.56C674.512 652.613 681.24 641.625 686.287 628.677C691.128 616.15 694.452 601.835 695.437 580.878C696.38 559.871 696.626 553.175 696.626 499.689C696.626 446.204 696.38 439.491 695.437 418.484C694.452 397.519 691.128 383.208 686.287 370.686C681.24 357.733 674.512 346.745 663.557 335.798C652.602 324.844 641.647 318.115 628.682 313.089C616.127 308.219 601.808 304.899 580.842 303.939C559.835 302.983 553.148 302.75 499.646 302.75H499.703ZM482.036 338.24C487.279 338.231 493.13 338.24 499.703 338.24C552.286 338.24 558.518 338.428 579.283 339.372C598.485 340.25 608.906 343.459 615.848 346.154C625.039 349.724 631.591 353.991 638.48 360.884C645.373 367.777 649.64 374.341 653.218 383.532C655.913 390.466 659.126 400.887 660 420.089C660.943 440.849 661.148 447.086 661.148 499.644C661.148 552.202 660.943 558.439 660 579.2C659.122 598.401 655.913 608.823 653.218 615.757C649.648 624.947 645.373 631.491 638.48 638.38C631.587 645.273 625.043 649.54 615.848 653.109C608.914 655.817 598.485 659.018 579.283 659.896C558.522 660.839 552.286 661.044 499.703 661.044C447.116 661.044 440.884 660.839 420.123 659.896C400.921 659.009 390.5 655.801 383.554 653.105C374.363 649.536 367.799 645.269 360.906 638.376C354.013 631.483 349.746 624.935 346.168 615.74C343.472 608.806 340.26 598.385 339.386 579.183C338.442 558.422 338.253 552.186 338.253 499.595C338.253 447.004 338.442 440.8 339.386 420.039C340.264 400.838 343.472 390.416 346.168 383.474C349.738 374.284 354.013 367.719 360.906 360.826C367.799 353.933 374.363 349.666 383.554 346.089C390.496 343.381 400.921 340.18 420.123 339.298C438.291 338.478 445.331 338.231 482.036 338.19V338.24ZM604.828 370.94C600.153 370.94 595.584 372.326 591.697 374.923C587.811 377.52 584.782 381.212 582.993 385.531C581.205 389.849 580.737 394.602 581.65 399.186C582.562 403.771 584.814 407.982 588.12 411.286C591.426 414.591 595.637 416.841 600.222 417.752C604.807 418.663 609.559 418.194 613.877 416.404C618.196 414.614 621.886 411.584 624.482 407.696C627.078 403.809 628.462 399.239 628.461 394.564C628.461 381.517 617.875 370.932 604.828 370.932V370.94ZM499.703 398.552C443.85 398.552 398.566 443.836 398.566 499.689C398.566 555.542 443.85 600.806 499.703 600.806C555.556 600.806 600.828 555.542 600.828 499.689C600.828 443.836 555.552 398.552 499.699 398.552H499.703ZM499.703 434.043C535.956 434.043 565.35 463.432 565.35 499.689C565.35 535.943 535.956 565.336 499.703 565.336C463.446 565.336 434.056 535.943 434.056 499.689C434.056 463.432 463.446 434.043 499.703 434.043V434.043Z" fill="white"/>
<defs>
<filter id="filter0_d_2220_3291" x="55" y="63" width="890" height="890" filterUnits="userSpaceOnUse" color-interpolation-filters="sRGB">
<feFlood flood-opacity="0" result="BackgroundImageFix"/>
<feColorMatrix in="SourceAlpha" type="matrix" values="0 0 0 0 0 0 0 0 0 0 0 0 0 0 0 0 0 0 127 0" result="hardAlpha"/>
<feOffset dy="8"/>
<feGaussianBlur stdDeviation="10"/>
<feColorMatrix type="matrix" values="0 0 0 0 0 0 0 0 0 0 0 0 0 0 0 0 0 0 0.25 0"/>
<feBlend mode="normal" in2="BackgroundImageFix" result="effect1_dropShadow_2220_3291"/>
<feBlend mode="normal" in="SourceGraphic" in2="effect1_dropShadow_2220_3291" result="shape"/>
</filter>
<linearGradient id="paint0_linear_2220_3291" x1="303.65" y1="75" x2="797.075" y2="925" gradientUnits="userSpaceOnUse">
<stop offset="0.364583" stop-color="white"/>
<stop offset="1" stop-color="#D8DFEC"/>
</linearGradient>
<radialGradient id="paint1_radial_2220_3291" cx="0" cy="0" r="1" gradientUnits="userSpaceOnUse" gradientTransform="translate(374.706 807.411) rotate(-90) scale(528.573 491.748)">
<stop stop-color="#FFDD55"/>
<stop offset="0.1" stop-color="#FFDD55"/>
<stop offset="0.5" stop-color="#FF543E"/>
<stop offset="1" stop-color="#C837AB"/>
</radialGradient>
<radialGradient id="paint2_radial_2220_3291" cx="0" cy="0" r="1" gradientUnits="userSpaceOnUse" gradientTransform="translate(143.639 271.42) rotate(78.6776) scale(236.277 974.188)">
<stop stop-color="#3771C8"/>
<stop offset="0.128" stop-color="#3771C8"/>
<stop offset="1" stop-color="#6600FF" stop-opacity="0"/>
</radialGradient>
</defs>
</svg>
