<svg width="28" height="28" viewBox="0 0 28 28" fill="none" xmlns="http://www.w3.org/2000/svg">
<path d="M14 0L14 6.99251C14 10.8544 10.866 13.985 7 13.985V13.985C3.134 13.985 -2.81947e-06 10.8544 -2.64941e-06 6.99251V6.99251C-2.47935e-06 3.13065 3.13401 -4.71475e-07 7 -3.0373e-07L14 0Z" fill="#2654DB"/>
<path d="M14 20.9775H28V27.97H14V20.9775Z" fill="#2654DB"/>
<path d="M14 27.9701V13.9851L-4.76837e-07 27.9701H14Z" fill="#FBC143"/>
<path d="M14 9.24468e-05V13.9851L28 9.24468e-05H14Z" fill="#FBC143"/>
<path d="M14 13.985C14 17.8469 17.134 20.9775 21 20.9775C24.866 20.9775 28 17.8469 28 13.985L14 13.985Z" fill="#F73E46"/>
<path d="M-6.78509e-07 6.99258C-5.09521e-07 10.8544 3.13401 13.9851 7 13.9851C10.866 13.9851 14 10.8544 14 6.99258L-6.78509e-07 6.99258Z" fill="#F73E46"/>
</svg>
