<svg width="1000" height="1000" viewBox="0 0 1000 1000" fill="none" xmlns="http://www.w3.org/2000/svg">
<g filter="url(#filter0_d_2217_3234)">
<rect x="75" y="75" width="850" height="850" rx="200" fill="url(#paint0_linear_2217_3234)"/>
</g>
<path d="M745 291.029V708.971C745 718.526 741.204 727.69 734.447 734.447C727.69 741.204 718.526 745 708.971 745H291.029C281.474 745 272.31 741.204 265.553 734.447C258.796 727.69 255 718.526 255 708.971V291.029C255 281.474 258.796 272.31 265.553 265.553C272.31 258.796 281.474 255 291.029 255H708.971C718.526 255 727.69 258.796 734.447 265.553C741.204 272.31 745 281.474 745 291.029V291.029ZM399.118 442.353H327.059V672.941H399.118V442.353ZM405.603 363.088C405.641 357.638 404.605 352.233 402.554 347.183C400.503 342.132 397.478 337.535 393.65 333.654C389.823 329.773 385.268 326.684 380.247 324.564C375.226 322.443 369.836 321.332 364.385 321.294H363.088C352.004 321.294 341.373 325.697 333.535 333.535C325.697 341.373 321.294 352.004 321.294 363.088C321.294 374.173 325.697 384.803 333.535 392.641C341.373 400.479 352.004 404.882 363.088 404.882V404.882C368.539 405.016 373.963 404.075 379.05 402.112C384.138 400.149 388.788 397.203 392.736 393.443C396.684 389.682 399.853 385.18 402.061 380.194C404.268 375.208 405.472 369.836 405.603 364.385V363.088ZM672.941 532.859C672.941 463.538 628.841 436.588 585.029 436.588C570.685 435.87 556.402 438.925 543.607 445.449C530.811 451.974 519.95 461.739 512.106 473.771H510.088V442.353H442.353V672.941H514.412V550.297C513.37 537.736 517.327 525.272 525.422 515.611C533.518 505.951 545.098 499.875 557.647 498.703H560.385C583.3 498.703 600.306 513.115 600.306 549.432V672.941H672.365L672.941 532.859Z" fill="#0A66C2"/>
<defs>
<filter id="filter0_d_2217_3234" x="55" y="63" width="890" height="890" filterUnits="userSpaceOnUse" color-interpolation-filters="sRGB">
<feFlood flood-opacity="0" result="BackgroundImageFix"/>
<feColorMatrix in="SourceAlpha" type="matrix" values="0 0 0 0 0 0 0 0 0 0 0 0 0 0 0 0 0 0 127 0" result="hardAlpha"/>
<feOffset dy="8"/>
<feGaussianBlur stdDeviation="10"/>
<feColorMatrix type="matrix" values="0 0 0 0 0 0 0 0 0 0 0 0 0 0 0 0 0 0 0.25 0"/>
<feBlend mode="normal" in2="BackgroundImageFix" result="effect1_dropShadow_2217_3234"/>
<feBlend mode="normal" in="SourceGraphic" in2="effect1_dropShadow_2217_3234" result="shape"/>
</filter>
<linearGradient id="paint0_linear_2217_3234" x1="303.65" y1="75" x2="797.075" y2="925" gradientUnits="userSpaceOnUse">
<stop offset="0.364583" stop-color="white"/>
<stop offset="1" stop-color="#D8DFEC"/>
</linearGradient>
</defs>
</svg>
