<svg width="1000" height="1000" viewBox="0 0 1000 1000" fill="none" xmlns="http://www.w3.org/2000/svg">
<g filter="url(#filter0_d_2282_3228)">
<rect x="75" y="75" width="850" height="850" rx="200" fill="url(#paint0_linear_2282_3228)"/>
</g>
<path d="M239 500.497C239 607.574 303.39 699.562 395.53 740.006C394.794 721.746 395.399 699.826 400.081 679.959C405.109 658.731 433.729 537.47 433.729 537.47C433.729 537.47 425.375 520.773 425.375 496.097C425.375 457.344 447.836 428.403 475.808 428.403C499.594 428.403 511.086 446.268 511.086 467.661C511.086 491.571 495.835 527.337 487.992 560.463C481.44 588.201 501.9 610.826 529.266 610.826C578.812 610.826 612.182 547.192 612.182 471.796C612.182 414.484 573.58 371.587 503.369 371.587C424.045 371.587 374.628 430.742 374.628 496.818C374.628 519.6 381.345 535.666 391.867 548.107C396.704 553.821 397.376 556.119 395.626 562.681C394.371 567.492 391.491 579.076 390.298 583.666C388.557 590.289 383.19 592.657 377.204 590.211C340.668 575.296 323.652 535.286 323.652 490.309C323.652 416.027 386.302 326.956 510.546 326.956C610.386 326.956 676.098 399.201 676.098 476.752C676.098 579.333 619.066 655.969 534.998 655.969C506.767 655.969 480.21 640.708 471.113 623.374C471.113 623.374 455.932 683.624 452.716 695.258C447.172 715.42 436.319 735.571 426.397 751.277C449.915 758.219 474.76 762 500.509 762C644.914 762 762 644.923 762 500.497C762 356.077 644.914 239 500.509 239C356.09 239 239 356.077 239 500.497Z" fill="#CB1F27"/>
<defs>
<filter id="filter0_d_2282_3228" x="55" y="63" width="890" height="890" filterUnits="userSpaceOnUse" color-interpolation-filters="sRGB">
<feFlood flood-opacity="0" result="BackgroundImageFix"/>
<feColorMatrix in="SourceAlpha" type="matrix" values="0 0 0 0 0 0 0 0 0 0 0 0 0 0 0 0 0 0 127 0" result="hardAlpha"/>
<feOffset dy="8"/>
<feGaussianBlur stdDeviation="10"/>
<feColorMatrix type="matrix" values="0 0 0 0 0 0 0 0 0 0 0 0 0 0 0 0 0 0 0.25 0"/>
<feBlend mode="normal" in2="BackgroundImageFix" result="effect1_dropShadow_2282_3228"/>
<feBlend mode="normal" in="SourceGraphic" in2="effect1_dropShadow_2282_3228" result="shape"/>
</filter>
<linearGradient id="paint0_linear_2282_3228" x1="303.65" y1="75" x2="797.075" y2="925" gradientUnits="userSpaceOnUse">
<stop offset="0.364583" stop-color="white"/>
<stop offset="1" stop-color="#D8DFEC"/>
</linearGradient>
</defs>
</svg>
