<svg width="151" height="35" viewBox="0 0 151 35" fill="none" xmlns="http://www.w3.org/2000/svg">
<path d="M60.7768 28.8785V24.6293H47.6542L52.0176 19.2689L55.1852 15.3467L60.292 9.03839V5.99864H41.2221V10.2477H53.6337L49.5612 15.2486L46.3613 19.2036L40.9959 25.806V28.8785H60.7768Z" fill="black"/>
<path d="M81.7142 11.7477V29.6522H76.92V27.5889C75.6758 29.1419 73.874 29.9184 71.5144 29.9184C69.8842 29.9184 68.4041 29.5413 67.0741 28.7869C65.7656 28.0326 64.736 26.9565 63.9852 25.5588C63.2345 24.161 62.8591 22.5414 62.8591 20.7C62.8591 18.8585 63.2345 17.2389 63.9852 15.8411C64.736 14.4434 65.7656 13.3673 67.0741 12.613C68.4041 11.8586 69.8842 11.4815 71.5144 11.4815C73.7238 11.4815 75.4506 12.2025 76.6948 13.6447V11.7477H81.7142ZM72.3832 25.6586C73.6488 25.6586 74.6998 25.2149 75.5364 24.3274C76.373 23.4178 76.7913 22.2086 76.7913 20.7C76.7913 19.1913 76.373 17.9932 75.5364 17.1057C74.6998 16.1961 73.6488 15.7413 72.3832 15.7413C71.0961 15.7413 70.0343 16.1961 69.1977 17.1057C68.3612 17.9932 67.9429 19.1913 67.9429 20.7C67.9429 22.2086 68.3612 23.4178 69.1977 24.3274C70.0343 25.2149 71.0961 25.6586 72.3832 25.6586Z" fill="black"/>
<path d="M103.929 11.7477V29.6522H99.1352V27.5889C97.8911 29.1419 96.0893 29.9184 93.7297 29.9184C92.0994 29.9184 90.6193 29.5413 89.2894 28.7869C87.9809 28.0326 86.9513 26.9565 86.2005 25.5588C85.4497 24.161 85.0743 22.5414 85.0743 20.7C85.0743 18.8585 85.4497 17.2389 86.2005 15.8411C86.9513 14.4434 87.9809 13.3673 89.2894 12.613C90.6193 11.8586 92.0994 11.4815 93.7297 11.4815C95.9391 11.4815 97.6659 12.2025 98.91 13.6447V11.7477H103.929ZM94.5984 25.6586C95.864 25.6586 96.9151 25.2149 97.7517 24.3274C98.5883 23.4178 99.0065 22.2086 99.0065 20.7C99.0065 19.1913 98.5883 17.9932 97.7517 17.1057C96.9151 16.1961 95.864 15.7413 94.5984 15.7413C93.3114 15.7413 92.2496 16.1961 91.413 17.1057C90.5764 17.9932 90.1581 19.1913 90.1581 20.7C90.1581 22.2086 90.5764 23.4178 91.413 24.3274C92.2496 25.2149 93.3114 25.6586 94.5984 25.6586Z" fill="black"/>
<path d="M114.787 29.9184C112.835 29.9184 111.312 29.386 110.218 28.321C109.124 27.2339 108.577 25.703 108.577 23.7284V4.95865H113.596V23.4289C113.596 24.1832 113.778 24.7712 114.143 25.1927C114.529 25.5921 115.065 25.7917 115.752 25.7917C116.009 25.7917 116.267 25.7585 116.524 25.6919C116.803 25.6254 117.017 25.5477 117.168 25.459L117.393 29.4858C116.556 29.7742 115.688 29.9184 114.787 29.9184Z" fill="black"/>
<path d="M130.282 28.7869C129.789 29.1641 129.177 29.4525 128.448 29.6522C127.74 29.8297 127 29.9184 126.228 29.9184C124.147 29.9184 122.549 29.3749 121.434 28.2877C120.318 27.2006 119.761 25.6032 119.761 23.4955V7.78743H124.78V12.1471H129.059V16.1406H124.78V23.4289C124.78 24.1832 124.962 24.7712 125.327 25.1927C125.692 25.5921 126.217 25.7917 126.904 25.7917C127.676 25.7917 128.362 25.5699 128.963 25.1262L130.282 28.7869Z" fill="black"/>
<path d="M140.82 29.9184C138.997 29.9184 137.356 29.5302 135.897 28.7536C134.46 27.9549 133.334 26.8567 132.519 25.459C131.703 24.0612 131.296 22.4749 131.296 20.7C131.296 18.925 131.703 17.3387 132.519 15.941C133.334 14.5432 134.46 13.4561 135.897 12.6795C137.356 11.8808 138.997 11.4815 140.82 11.4815C142.643 11.4815 144.274 11.8808 145.711 12.6795C147.148 13.4561 148.274 14.5432 149.089 15.941C149.904 17.3387 150.312 18.925 150.312 20.7C150.312 22.4749 149.904 24.0612 149.089 25.459C148.274 26.8567 147.148 27.9549 145.711 28.7536C144.274 29.5302 142.643 29.9184 140.82 29.9184ZM140.82 25.6586C142.107 25.6586 143.158 25.2149 143.973 24.3274C144.81 23.4178 145.228 22.2086 145.228 20.7C145.228 19.1913 144.81 17.9932 143.973 17.1057C143.158 16.1961 142.107 15.7413 140.82 15.7413C139.533 15.7413 138.471 16.1961 137.635 17.1057C136.798 17.9932 136.38 19.1913 136.38 20.7C136.38 22.2086 136.798 23.4178 137.635 24.3274C138.471 25.2149 139.533 25.6586 140.82 25.6586Z" fill="black"/>
<path d="M17.374 0L17.374 8.67769C17.374 13.4702 13.4847 17.3554 8.68698 17.3554V17.3554C3.88929 17.3554 -8.88072e-07 13.4702 -6.77031e-07 8.67769V8.67769C-4.6599e-07 3.88513 3.8893 -5.85099e-07 8.68699 -3.76928e-07L17.374 0Z" fill="#2654DB"/>
<path d="M17.374 26.0331H34.7479V34.7107H17.374V26.0331Z" fill="#2654DB"/>
<path d="M17.374 34.7107V17.3554L4.17233e-07 34.7107H17.374Z" fill="#FBC143"/>
<path d="M17.374 5.99027e-06V17.3554L34.7479 5.99027e-06H17.374Z" fill="#FBC143"/>
<path d="M17.374 17.3554C17.374 22.1479 21.2633 26.0331 26.0609 26.0331C30.8586 26.0331 34.7479 22.1479 34.7479 17.3554L17.374 17.3554Z" fill="#F73E46"/>
<path d="M-6.92644e-07 8.67769C-4.82931e-07 13.4702 3.88929 17.3554 8.68698 17.3554C13.4847 17.3554 17.374 13.4702 17.374 8.67769L-6.92644e-07 8.67769Z" fill="#F73E46"/>
</svg>
